<svg width="165" height="63" viewBox="0 0 165 63" fill="none" xmlns="http://www.w3.org/2000/svg">
<rect width="165" height="63" rx="6" fill="white"/>
<path d="M41.5241 37.968H46.6601V42H36.1961V25.008H41.5241V37.968ZM54.7687 42.168C53.4087 42.168 52.1847 41.888 51.0967 41.328C50.0087 40.768 49.1527 39.968 48.5287 38.928C47.9207 37.872 47.6167 36.64 47.6167 35.232C47.6167 33.824 47.9207 32.6 48.5287 31.56C49.1527 30.504 50.0087 29.696 51.0967 29.136C52.1847 28.576 53.4087 28.296 54.7687 28.296C56.1287 28.296 57.3527 28.576 58.4407 29.136C59.5287 29.696 60.3767 30.504 60.9847 31.56C61.6087 32.6 61.9207 33.824 61.9207 35.232C61.9207 36.64 61.6087 37.872 60.9847 38.928C60.3767 39.968 59.5287 40.768 58.4407 41.328C57.3527 41.888 56.1287 42.168 54.7687 42.168ZM54.7687 37.56C55.2647 37.56 55.6807 37.368 56.0167 36.984C56.3527 36.584 56.5207 36 56.5207 35.232C56.5207 34.464 56.3527 33.888 56.0167 33.504C55.6807 33.104 55.2647 32.904 54.7687 32.904C54.2727 32.904 53.8567 33.104 53.5207 33.504C53.1847 33.888 53.0167 34.464 53.0167 35.232C53.0167 36 53.1767 36.584 53.4967 36.984C53.8327 37.368 54.2567 37.56 54.7687 37.56ZM62.8745 35.232C62.8745 33.808 63.1145 32.576 63.5945 31.536C64.0905 30.48 64.7625 29.68 65.6105 29.136C66.4585 28.576 67.4105 28.296 68.4665 28.296C69.3465 28.296 70.1065 28.48 70.7465 28.848C71.3865 29.2 71.8745 29.688 72.2105 30.312V28.464H77.5145V42H72.2105V40.152C71.8745 40.776 71.3865 41.272 70.7465 41.64C70.1065 41.992 69.3465 42.168 68.4665 42.168C67.4105 42.168 66.4585 41.896 65.6105 41.352C64.7625 40.792 64.0905 39.992 63.5945 38.952C63.1145 37.896 62.8745 36.656 62.8745 35.232ZM72.2105 35.232C72.2105 34.512 72.0265 33.952 71.6585 33.552C71.2905 33.152 70.8185 32.952 70.2425 32.952C69.6665 32.952 69.1945 33.152 68.8265 33.552C68.4585 33.952 68.2745 34.512 68.2745 35.232C68.2745 35.952 68.4585 36.512 68.8265 36.912C69.1945 37.312 69.6665 37.512 70.2425 37.512C70.8185 37.512 71.2905 37.312 71.6585 36.912C72.0265 36.512 72.2105 35.952 72.2105 35.232ZM79.187 35.232C79.187 33.808 79.427 32.576 79.907 31.536C80.403 30.48 81.075 29.68 81.923 29.136C82.771 28.576 83.723 28.296 84.779 28.296C85.659 28.296 86.411 28.48 87.035 28.848C87.675 29.2 88.163 29.688 88.499 30.312V24.24H93.827V42H88.499V40.152C88.163 40.776 87.675 41.272 87.035 41.64C86.411 41.992 85.659 42.168 84.779 42.168C83.723 42.168 82.771 41.896 81.923 41.352C81.075 40.792 80.403 39.992 79.907 38.952C79.427 37.896 79.187 36.656 79.187 35.232ZM88.523 35.232C88.523 34.512 88.339 33.952 87.971 33.552C87.603 33.152 87.131 32.952 86.555 32.952C85.979 32.952 85.507 33.152 85.139 33.552C84.771 33.952 84.587 34.512 84.587 35.232C84.587 35.952 84.771 36.512 85.139 36.912C85.507 37.312 85.979 37.512 86.555 37.512C87.131 37.512 87.603 37.312 87.971 36.912C88.339 36.512 88.523 35.952 88.523 35.232ZM101.428 25.008V34.584C101.428 35.368 101.596 35.992 101.932 36.456C102.284 36.904 102.844 37.128 103.612 37.128C104.38 37.128 104.948 36.904 105.316 36.456C105.684 35.992 105.868 35.368 105.868 34.584V25.008H111.172V34.584C111.172 36.2 110.836 37.584 110.164 38.736C109.492 39.872 108.572 40.728 107.404 41.304C106.236 41.88 104.932 42.168 103.492 42.168C102.052 42.168 100.772 41.88 99.6515 41.304C98.5475 40.728 97.6835 39.872 97.0595 38.736C96.4355 37.6 96.1235 36.216 96.1235 34.584V25.008H101.428ZM118.798 25.008V42H113.47V25.008H118.798Z" fill="black"/>
</svg>
